<svg height="40" width="40" xmlns="http://www.w3.org/2000/svg" data-name="Layer 1" viewBox="0 0 100 100" fill="#009cdf">
  <path d="M100 34.78a18.25 18.25 0 00-4.91-12.46 11.66 11.66 0 00-9-5.3 18.28 18.28 0 00-4.4-.54h-63.4a18.28 18.28 0 00-4.4.54 11.66 11.66 0 00-9 5.3A18.25 18.25 0 000 34.78v30.44a18.32 18.32 0 0018.29 18.3h63.42A18.32 18.32 0 00100 65.22zM81.71 22.24a12.44 12.44 0 013.47.5 12.44 12.44 0 015.28 3.1 6.28 6.28 0 01.54 1.4 5.87 5.87 0 01-2.82 6.83L53 54.42a6.11 6.11 0 01-6.08 0L11.78 34.07A5.87 5.87 0 019 27.24a6.28 6.28 0 01.55-1.39 12.44 12.44 0 015.28-3.1 12.44 12.44 0 013.47-.5zm0 55.52H18.29A12.55 12.55 0 015.76 65.22V36.45a12.06 12.06 0 003.13 2.61l35.19 20.35a11.88 11.88 0 0011.84 0l35.19-20.35a12.06 12.06 0 003.13-2.61v28.77a12.55 12.55 0 01-12.53 12.54z"/>
</svg>
