<svg height="40" width="40" xmlns="http://www.w3.org/2000/svg" viewBox="0 0 32 32" fill="#f78200">
  <path d="M16 0C7.176 0 0 7.176 0 16s7.176 16 16 16 16-7.176 16-16S24.824 0 16 0zm12.298 9.598h-6.21c-.274-1.669-.65-3.196-1.121-4.513-.321-.9-.687-1.696-1.098-2.396a13.856 13.856 0 018.429 6.909zM20.456 16c0 1.498-.105 2.912-.254 4.267h-8.019A38.744 38.744 0 0111.929 16c0-1.499.104-2.914.254-4.269h8.019c.151 1.355.254 2.77.254 4.269zM14.929 2.929c.492-.583.885-.773 1.21-.79.049 0 .096.007.144.008.317.032.705.227 1.173.781.515.609 1.051 1.602 1.504 2.873.387 1.082.709 2.372.959 3.796h-7.455c.25-1.424.574-2.714.96-3.796.455-1.27.991-2.262 1.505-2.872zm-2.346-.356c-.441.727-.827 1.563-1.167 2.513-.47 1.316-.847 2.844-1.121 4.513H3.7a13.842 13.842 0 018.883-7.026zM2.133 16c0-1.491.24-2.924.673-4.269h7.204c-.139 1.358-.216 2.788-.216 4.269s.077 2.907.216 4.267H2.806A13.89 13.89 0 012.133 16zm1.569 6.402h6.594c.274 1.671.65 3.201 1.121 4.519.339.949.726 1.782 1.167 2.506a13.85 13.85 0 01-8.882-7.025zm13.754 6.669c-.465.55-.849.745-1.164.779-.052.001-.102.008-.152.008-.325-.017-.719-.205-1.21-.788-.515-.609-1.05-1.596-1.504-2.867-.386-1.082-.712-2.375-.962-3.802h7.458c-.25 1.427-.574 2.72-.961 3.802-.454 1.272-.99 2.258-1.505 2.868zm2.415.24a14 14 0 001.096-2.39c.471-1.318.849-2.848 1.123-4.519h6.206a13.858 13.858 0 01-8.425 6.909zm2.502-9.044c.14-1.359.217-2.785.217-4.267s-.077-2.911-.217-4.269h6.818a13.873 13.873 0 010 8.536h-6.818z"/>
</svg>
