<?xml version="1.0" encoding="UTF-8" standalone="no"?><!DOCTYPE svg PUBLIC "-//W3C//DTD SVG 1.1//EN" "http://www.w3.org/Graphics/SVG/1.1/DTD/svg11.dtd"><svg width="100%" height="100%" viewBox="0 0 475 350" version="1.1" xmlns="http://www.w3.org/2000/svg" xmlns:xlink="http://www.w3.org/1999/xlink" xml:space="preserve" xmlns:serif="http://www.serif.com/" style="fill-rule:evenodd;clip-rule:evenodd;stroke-linejoin:round;stroke-miterlimit:2;"><path d="M-0,63.333c0,-1.527 0.607,-2.992 1.687,-4.071c1.079,-1.08 2.544,-1.687 4.071,-1.687c47.227,0 370.194,-0 417.421,-0c1.527,-0 2.992,0.607 4.072,1.687c1.08,1.079 1.687,2.544 1.687,4.071c-0.001,1.528 -0.607,2.992 -1.687,4.072c-1.08,1.08 -2.545,1.687 -4.072,1.687c-47.227,-0 -370.194,-0 -417.421,-0c-1.527,-0 -2.992,-0.607 -4.071,-1.687c-1.08,-1.08 -1.687,-2.544 -1.687,-4.072Zm-0,17.275c0,-3.18 2.578,-5.758 5.758,-5.758c40.049,-0 276.618,-0 316.667,-0c3.18,0 5.758,2.578 5.758,5.758c0,3.181 -2.578,5.759 -5.758,5.759c-40.049,-0 -276.618,-0 -316.667,-0c-3.18,-0 -5.758,-2.578 -5.758,-5.759Zm54.696,-56.137c-0,-1.527 0.607,-2.992 1.686,-4.072c1.08,-1.08 2.545,-1.687 4.072,-1.686c22.479,-0.001 104.188,-0.001 126.667,-0.001c1.527,0 2.992,0.607 4.072,1.687c1.079,1.08 1.686,2.545 1.686,4.072c0,1.527 -0.607,2.992 -1.686,4.072c-1.08,1.08 -2.545,1.686 -4.072,1.686c-22.479,0 -104.188,0 -126.667,0c-1.527,0 -2.992,-0.606 -4.072,-1.686c-1.079,-1.08 -1.686,-2.545 -1.686,-4.072Z" style="fill:#dee1e1;fill-rule:nonzero;"/><circle cx="23.029" cy="23.029" r="23.029" style="fill:#dee1e1;"/><path d="M0,118.713c-0,-5.526 2.195,-10.825 6.102,-14.732c3.907,-3.907 9.206,-6.102 14.731,-6.102c78.367,0 354.967,0 433.334,0c5.525,0 10.824,2.195 14.731,6.102c3.907,3.907 6.102,9.206 6.102,14.732c0,46.979 0,160.728 0,207.708c0,5.525 -2.195,10.824 -6.102,14.731c-3.907,3.907 -9.206,6.102 -14.731,6.102c-78.367,0 -354.967,0 -433.334,0c-5.525,0 -10.824,-2.195 -14.731,-6.102c-3.907,-3.907 -6.102,-9.206 -6.102,-14.731c-0,-46.98 -0,-160.729 -0,-207.708Z" style="fill:#1877f2;fill-rule:nonzero;"/></svg>