<svg width="76" height="114" fill="none" xmlns="http://www.w3.org/2000/svg"><circle cx="4.701" cy="7.052" r="3.526" fill="#DEE1E1"/><path fill="#DEE1E1" d="M10.577 5.289h23.505v3.526H10.577z"/><path d="M0 12.928h75.37v75.337H0V12.928z" fill="#E4405F"/><path fill="#DEE1E1" d="M1.175 102.247h70.516v3.526H1.175zM1.175 106.948h56.412v3.526H1.175z"/><path clip-rule="evenodd" d="M20.09 92.502l-4.672-.03 2.026 1.559 2.647-1.529zM20.127 92.566l-2.31 4.063-.336-2.535 2.646-1.528z" stroke="#DEE1E1" stroke-width=".5" stroke-linecap="round" stroke-linejoin="round"/><path clip-rule="evenodd" d="M3.389 96.425l-.321-.291c-1.14-1.035-1.893-1.718-1.893-2.553 0-.683.535-1.218 1.218-1.218.385 0 .755.18.996.462.241-.283.61-.462.996-.462.683 0 1.217.535 1.217 1.218 0 .835-.752 1.518-1.892 2.553l-.321.29z" stroke="#DEE1E1" stroke-width=".5"/><path d="M11.807 96.03l.08-.237-.113-.037-.1.063.133.212zm.63-.629l-.211-.134-.064.1.038.113.237-.079zm.315.944l-.08.237.475.159-.158-.475-.237.08zm-2.031.25c.448 0 .867-.13 1.22-.353l-.268-.423a1.771 1.771 0 01-.952.276v.5zm-2.281-2.28a2.28 2.28 0 002.28 2.28v-.5a1.78 1.78 0 01-1.78-1.78h-.5zm2.28-2.281a2.28 2.28 0 00-2.28 2.28h.5c0-.983.797-1.78 1.78-1.78v-.5zm2.282 2.28a2.28 2.28 0 00-2.281-2.28v.5c.983 0 1.78.797 1.78 1.78h.5zm-.354 1.221c.224-.353.354-.772.354-1.22h-.5c0 .35-.102.677-.276.952l.422.268zm-.448-.055l.314.944.475-.158-.315-.944-.474.158zm.63.628l-.944-.315-.158.475.944.314.159-.474z" fill="#DEE1E1"/><path d="M71.185 94.608l.161.143 1.26 1.111.003.002h0s0 0 0 0h0m-1.424-1.256l-1.521 1.27s0 0 0 0h0V92.41h2.952v3.451h0l-.003.002-.004.001m-1.424-1.256l-.165.139m.165-.139l-.165.139m1.589 1.117h0s0 0 0 0zm-1.59-1.117l-1.346 1.133m1.347-1.133l-1.347 1.133m0 0l-.002.001m.002-.001l-.002.001m0 0h0z" stroke="#DEE1E1" stroke-width=".5"/></svg>
