<?xml version="1.0" encoding="UTF-8" standalone="no"?><!DOCTYPE svg PUBLIC "-//W3C//DTD SVG 1.1//EN" "http://www.w3.org/Graphics/SVG/1.1/DTD/svg11.dtd"><svg width="100%" height="100%" viewBox="0 0 317 475" version="1.1" xmlns="http://www.w3.org/2000/svg" xmlns:xlink="http://www.w3.org/1999/xlink" xml:space="preserve" xmlns:serif="http://www.serif.com/" style="fill-rule:evenodd;clip-rule:evenodd;stroke-linecap:round;stroke-linejoin:round;"><circle cx="19.588" cy="29.383" r="14.692" style="fill:#dee1e1;"/><path d="M44.071,29.379c-0,-4.055 3.287,-7.341 7.341,-7.342c18.171,0.001 65.084,0.001 83.255,0.001c4.054,-0 7.341,3.286 7.341,7.341c0,0.003 0,0.006 0,0.009c0,4.054 -3.287,7.341 -7.341,7.341c-18.171,0 -65.084,0 -83.255,0c-4.054,0 -7.341,-3.287 -7.341,-7.341c-0,-0.003 -0,-0.006 -0,-0.009Z" style="fill:#dee1e1;fill-rule:nonzero;"/><path d="M0,74.7c-0,-5.525 2.195,-10.824 6.102,-14.731c3.907,-3.907 9.206,-6.102 14.731,-6.102c57.047,-0 215.328,-0 272.375,-0c5.526,-0 10.825,2.195 14.732,6.102c3.907,3.907 6.102,9.206 6.102,14.731c-0,57.027 -0,215.211 -0,272.237c-0,5.526 -2.195,10.825 -6.102,14.732c-3.907,3.907 -9.206,6.102 -14.732,6.102c-57.047,-0 -215.328,-0 -272.375,-0c-5.525,-0 -10.824,-2.195 -14.731,-6.102c-3.907,-3.907 -6.102,-9.206 -6.102,-14.732c0,-57.026 0,-215.21 0,-272.237Z" style="fill:#e4405f;fill-rule:nonzero;"/><path d="M4.896,433.371c-0,-4.055 3.287,-7.342 7.342,-7.342c40.715,0 238.417,0 279.133,0c4.054,0 7.341,3.287 7.341,7.342c0.001,0.003 0.001,0.005 0.001,0.008c-0.001,4.055 -3.288,7.342 -7.342,7.342c-40.716,-0 -238.418,-0 -279.133,-0c-4.055,-0 -7.342,-3.287 -7.342,-7.342c-0,-0.003 -0,-0.005 -0,-0.008Zm-0,19.587c-0,-4.054 3.287,-7.341 7.342,-7.341c35.071,-0 185.294,-0 220.366,-0c4.055,-0 7.342,3.287 7.342,7.341c-0,0.003 -0,0.006 -0,0.009c-0,4.054 -3.287,7.341 -7.342,7.341c-35.072,0 -185.295,0 -220.366,0c-4.055,0 -7.342,-3.287 -7.342,-7.341c-0,-0.003 -0,-0.006 -0,-0.009Z" style="fill:#dee1e1;fill-rule:nonzero;"/><path d="M83.708,385.425l-19.466,-0.125l8.441,6.496l11.029,-6.371l-0.004,0Zm0.155,0.267l-9.625,16.929l-1.4,-10.563l11.025,-6.366Z" style="fill:none;fill-rule:nonzero;stroke:#dee1e1;stroke-width:2.08px;"/><path d="M14.121,401.771l-1.338,-1.213c-4.75,-4.312 -7.887,-7.158 -7.887,-10.637c-0,-2.846 2.229,-5.075 5.075,-5.075c1.604,-0 3.146,0.75 4.15,1.925c1.004,-1.179 2.542,-1.925 4.15,-1.925c2.846,-0 5.071,2.229 5.071,5.075c-0,3.479 -3.134,6.325 -7.884,10.637l-1.337,1.209l-0,0.004Z" style="fill:none;fill-rule:nonzero;stroke:#dee1e1;stroke-width:2.08px;stroke-linecap:butt;stroke-linejoin:miter;"/><path d="M49.196,400.125l0.333,-0.987l-0.471,-0.155l-0.416,0.263l0.554,0.883l-0,-0.004Zm2.625,-2.621l-0.879,-0.558l-0.267,0.417l0.158,0.47l0.988,-0.329Zm1.312,3.934l-0.333,0.987l1.979,0.663l-0.658,-1.98l-0.988,0.334l0,-0.005Zm-8.462,1.042c1.867,0 3.612,-0.541 5.083,-1.471l-1.117,-1.762c-1.185,0.753 -2.562,1.152 -3.966,1.15l-0,2.083Zm-9.504,-9.5c-0,5.212 4.288,9.5 9.5,9.5l-0,-2.083c-4.069,-0 -7.417,-3.348 -7.417,-7.417l-2.083,0Zm9.5,-9.504c-5.212,0 -9.5,4.288 -9.5,9.5l2.083,0c-0,-4.096 3.321,-7.417 7.417,-7.417l-0,-2.083Zm9.508,9.5c0,-5.212 -4.288,-9.5 -9.5,-9.5c-0.001,-0 -0.003,-0 -0.004,0l-0,2.083c4.096,0 7.416,3.321 7.416,7.417l2.088,0Zm-1.475,5.088c0.933,-1.471 1.475,-3.217 1.475,-5.084l-2.083,0c-0,1.459 -0.425,2.821 -1.15,3.967l1.758,1.117Zm-1.867,-0.23l1.309,3.934l1.979,-0.659l-1.313,-3.933l-1.975,0.658Zm2.625,2.617l-3.933,-1.313l-0.658,1.98l3.933,1.308l0.662,-1.975l-0.004,-0Z" style="fill:#dee1e1;fill-rule:nonzero;"/><path d="M296.604,394.2l0.671,0.596l5.25,4.629l0.013,0.008m-5.934,-5.233l-6.337,5.292l-0,-14.45l12.3,-0l-0,14.379l-0.013,0.008l-0.016,0.004m-5.934,-5.233l-0.687,0.579m0.687,-0.579l-0.687,0.579m6.621,4.654l-0,0Zm-6.625,-4.654l-5.609,4.721m5.613,-4.721l-5.613,4.721m0,-0l-0.008,0.004m0.008,-0.004l-0.008,0.004" style="fill:none;fill-rule:nonzero;stroke:#dee1e1;stroke-width:2.08px;stroke-linecap:butt;stroke-linejoin:miter;"/></svg>