<?xml version="1.0" encoding="UTF-8" standalone="no"?><!DOCTYPE svg PUBLIC "-//W3C//DTD SVG 1.1//EN" "http://www.w3.org/Graphics/SVG/1.1/DTD/svg11.dtd"><svg width="100%" height="100%" viewBox="0 0 475 342" version="1.1" xmlns="http://www.w3.org/2000/svg" xmlns:xlink="http://www.w3.org/1999/xlink" xml:space="preserve" xmlns:serif="http://www.serif.com/" style="fill-rule:evenodd;clip-rule:evenodd;stroke-linejoin:round;stroke-miterlimit:2;"><path d="M54.167,34.658c-0,-3.175 2.574,-5.75 5.75,-5.75c46.092,0 354.908,0 401,0c3.175,0 5.75,2.575 5.75,5.75c-0,3.176 -2.575,5.75 -5.75,5.75c-46.092,0 -354.908,0 -401,0c-3.176,0 -5.75,-2.574 -5.75,-5.75Zm-0,16.513c-0,-3.176 2.574,-5.75 5.75,-5.75c40.027,-0 276.656,-0 316.683,-0c3.176,-0 5.75,2.574 5.75,5.75c-0,0.003 -0,0.005 -0,0.008c0,3.18 -2.578,5.758 -5.758,5.758c-40.049,0 -276.618,0 -316.667,0c-3.18,0 -5.758,-2.578 -5.758,-5.758c-0,-0.003 -0,-0.005 -0,-0.008Zm-0,-39.463c-0,-1.527 0.606,-2.992 1.686,-4.071c1.08,-1.08 2.545,-1.687 4.072,-1.687c22.479,-0 104.187,-0 126.667,-0c1.527,-0 2.992,0.607 4.071,1.687c1.08,1.079 1.687,2.544 1.687,4.071c-0,1.528 -0.607,2.992 -1.687,4.072c-1.079,1.08 -2.544,1.687 -4.071,1.687c-22.48,-0 -104.188,-0 -126.667,-0c-1.527,-0 -2.992,-0.607 -4.072,-1.687c-1.08,-1.08 -1.686,-2.544 -1.686,-4.072Z" style="fill:#dee1e1;fill-rule:nonzero;"/><circle cx="23.029" cy="26.938" r="23.029" style="fill:#dee1e1;"/><path d="M0,91.408c0,-11.506 9.327,-20.833 20.833,-20.833c78.367,0 354.967,-0 433.334,0c11.506,-0 20.833,9.327 20.833,20.833c0,49.869 0,175.653 0,225.521c-0,11.506 -9.327,20.834 -20.833,20.834c-78.367,-0 -354.967,-0 -433.334,-0c-11.506,-0 -20.833,-9.328 -20.833,-20.834c-0,-49.868 -0,-175.652 -0,-225.521Z" style="fill:#1da1f2;fill-rule:nonzero;"/></svg>