<?xml version="1.0" encoding="UTF-8" standalone="no"?><!DOCTYPE svg PUBLIC "-//W3C//DTD SVG 1.1//EN" "http://www.w3.org/Graphics/SVG/1.1/DTD/svg11.dtd"><svg width="100%" height="100%" viewBox="0 0 480 292" version="1.1" xmlns="http://www.w3.org/2000/svg" xmlns:xlink="http://www.w3.org/1999/xlink" xml:space="preserve" xmlns:serif="http://www.serif.com/" style="fill-rule:evenodd;clip-rule:evenodd;stroke-linejoin:round;stroke-miterlimit:2;"><path d="M1.562,197.667c0.001,-1.693 0.673,-3.317 1.87,-4.514c1.197,-1.197 2.821,-1.87 4.514,-1.87c21.207,0 89.168,0 110.375,0c1.693,0 3.316,0.673 4.514,1.87c1.197,1.197 1.869,2.821 1.869,4.514c0,1.693 -0.672,3.316 -1.869,4.513c-1.198,1.197 -2.821,1.87 -4.514,1.87c-21.207,0 -89.168,0 -110.375,-0c-1.693,0 -3.317,-0.673 -4.514,-1.87c-1.197,-1.197 -1.869,-2.82 -1.87,-4.513Zm0,16.958c0.001,-1.693 0.673,-3.317 1.87,-4.514c1.197,-1.197 2.821,-1.869 4.514,-1.869c10.028,-0 29.359,-0 39.387,-0c1.693,-0 3.317,0.672 4.514,1.869c1.197,1.197 1.87,2.821 1.87,4.514c-0,1.693 -0.673,3.317 -1.87,4.514c-1.197,1.197 -2.821,1.869 -4.514,1.869c-10.028,0 -29.359,0 -39.387,0c-1.693,0 -3.317,-0.672 -4.514,-1.869c-1.197,-1.197 -1.869,-2.821 -1.87,-4.514Zm23.925,26.213c0.001,-1.693 0.673,-3.317 1.87,-4.514c1.197,-1.197 2.821,-1.87 4.514,-1.87c10.028,0 29.359,0 39.387,0c1.693,0 3.317,0.673 4.514,1.87c1.197,1.197 1.87,2.821 1.87,4.514c-0,1.692 -0.673,3.316 -1.87,4.513c-1.197,1.197 -2.821,1.87 -4.514,1.87c-10.028,-0 -29.359,-0 -39.387,-0c-1.693,-0 -3.317,-0.673 -4.514,-1.87c-1.197,-1.197 -1.869,-2.821 -1.87,-4.513Zm0,21.195c0.001,-3.525 2.858,-6.383 6.384,-6.383c29.818,0 155.194,0 185.012,0c3.526,0 6.384,2.858 6.384,6.383c-0,3.526 -2.858,6.384 -6.384,6.384c-29.818,-0 -155.194,-0 -185.012,-0c-3.526,-0 -6.383,-2.858 -6.384,-6.384Zm0,16.959c0.001,-1.693 0.673,-3.317 1.87,-4.514c1.197,-1.197 2.821,-1.87 4.514,-1.87l100.229,0c1.693,0 3.317,0.673 4.514,1.87c1.197,1.197 1.869,2.821 1.869,4.514c0,1.693 -0.672,3.316 -1.869,4.513c-1.197,1.197 -2.821,1.87 -4.514,1.87l-100.229,0c-1.693,0 -3.317,-0.673 -4.514,-1.87c-1.197,-1.197 -1.869,-2.82 -1.87,-4.513Z" style="fill:#dee1e1;fill-rule:nonzero;"/><path d="M1.563,24.329c-0.001,-5.525 2.194,-10.824 6.101,-14.731c3.907,-3.907 9.206,-6.102 14.732,-6.102c58.273,-0 222.473,-0 280.746,-0c5.525,-0 10.824,2.195 14.731,6.102c3.907,3.907 6.102,9.206 6.102,14.731c0,34.903 0,104.789 0,139.692c0,5.525 -2.195,10.824 -6.102,14.731c-3.907,3.907 -9.206,6.102 -14.731,6.102c-58.273,0 -222.473,0 -280.746,0c-5.526,0 -10.825,-2.195 -14.732,-6.102c-3.907,-3.907 -6.102,-9.206 -6.101,-14.731c-0.001,-34.903 -0.001,-104.789 -0.001,-139.692Z" style="fill:#f00;fill-rule:nonzero;"/><path d="M335.404,20.112c0,-9.177 7.44,-16.616 16.617,-16.616c8.082,-0 17.772,-0 25.854,-0c9.177,-0 16.617,7.439 16.617,16.616c-0,0.002 -0,0.003 -0,0.005c-0,9.177 -7.44,16.616 -16.617,16.616c-8.082,0 -17.772,0 -25.854,0c-9.177,0 -16.617,-7.439 -16.617,-16.616c0,-0.002 0,-0.003 0,-0.005Zm0,42.396c0,-9.177 7.44,-16.616 16.617,-16.616c8.082,-0 17.772,-0 25.854,-0c9.177,-0 16.617,7.439 16.617,16.616c-0,0.002 -0,0.003 -0,0.005c-0,9.177 -7.44,16.616 -16.617,16.616c-8.082,0 -17.772,0 -25.854,0c-9.177,0 -16.617,-7.439 -16.617,-16.616c0,-0.002 0,-0.003 0,-0.005Zm0,42.392c0,-9.177 7.44,-16.617 16.617,-16.617c8.082,0 17.772,0 25.854,0c9.177,0 16.617,7.44 16.617,16.617c-0,0.001 -0,0.003 -0,0.004c-0,9.177 -7.44,16.617 -16.617,16.617c-8.082,-0 -17.772,-0 -25.854,-0c-9.177,-0 -16.617,-7.44 -16.617,-16.617c0,-0.001 0,-0.003 0,-0.004Zm0,42.392c0,-9.177 7.44,-16.617 16.617,-16.617c8.082,-0 17.772,-0 25.854,-0c9.177,0 16.617,7.44 16.617,16.617c-0,0.001 -0,0.002 -0,0.004c-0,9.177 -7.44,16.616 -16.617,16.616c-8.082,0 -17.772,0 -25.854,0c-9.177,0 -16.617,-7.439 -16.617,-16.616c0,-0.002 0,-0.003 0,-0.004Zm0,42.391c0,-9.177 7.44,-16.616 16.617,-16.616c8.082,-0 17.772,-0 25.854,-0c9.177,-0 16.617,7.439 16.617,16.616c-0,0.002 -0,0.003 -0,0.005c-0,9.177 -7.44,16.616 -16.617,16.616c-8.082,0 -17.772,0 -25.854,0c-9.177,0 -16.617,-7.439 -16.617,-16.616c0,-0.002 0,-0.003 0,-0.005Zm0,42.392c0,-9.177 7.44,-16.617 16.617,-16.617c8.082,0 17.772,0 25.854,0c9.177,0 16.617,7.44 16.617,16.617c-0,0.001 -0,0.003 -0,0.004c-0,9.177 -7.44,16.617 -16.617,16.617c-8.082,-0 -17.772,-0 -25.854,-0c-9.177,-0 -16.617,-7.44 -16.617,-16.617c0,-0.001 0,-0.003 0,-0.004Zm0,42.396c0,-9.177 7.44,-16.617 16.617,-16.617c8.082,0 17.772,0 25.854,0c9.177,0 16.617,7.44 16.617,16.617c-0,0.001 -0,0.003 -0,0.004c-0,9.177 -7.44,16.617 -16.617,16.617c-8.082,-0 -17.772,-0 -25.854,-0c-9.177,-0 -16.617,-7.44 -16.617,-16.617c0,-0.001 0,-0.003 0,-0.004Zm64.383,-264.592c0.001,-1.693 0.673,-3.316 1.87,-4.514c1.197,-1.197 2.821,-1.869 4.514,-1.869c14.455,-0 49.553,-0 64.008,-0c1.693,-0 3.317,0.672 4.514,1.869c1.197,1.198 1.87,2.821 1.87,4.514c-0.001,1.693 -0.673,3.317 -1.87,4.514c-1.197,1.197 -2.821,1.87 -4.514,1.869c-14.455,0 -49.553,0 -64.008,0c-1.693,0.001 -3.317,-0.672 -4.514,-1.869c-1.197,-1.197 -1.869,-2.821 -1.87,-4.514Zm0,42.396c0.001,-1.693 0.673,-3.317 1.87,-4.514c1.197,-1.197 2.821,-1.869 4.514,-1.869c14.455,-0 49.553,-0 64.008,-0c1.693,-0 3.317,0.672 4.514,1.869c1.197,1.197 1.87,2.821 1.87,4.514c-0.001,1.693 -0.673,3.317 -1.87,4.514c-1.197,1.197 -2.821,1.869 -4.514,1.869c-14.455,0 -49.553,0 -64.008,0c-1.693,0 -3.317,-0.672 -4.514,-1.869c-1.197,-1.197 -1.869,-2.821 -1.87,-4.514Zm0,42.392c0.001,-1.693 0.673,-3.317 1.87,-4.514c1.197,-1.197 2.821,-1.87 4.514,-1.87c14.455,0 49.553,0 64.008,0c1.693,0 3.317,0.673 4.514,1.87c1.197,1.197 1.87,2.821 1.87,4.514c-0.001,1.693 -0.673,3.316 -1.87,4.513c-1.197,1.197 -2.821,1.87 -4.514,1.87c-14.455,-0 -49.553,-0 -64.008,-0c-1.693,0 -3.317,-0.673 -4.514,-1.87c-1.197,-1.197 -1.869,-2.82 -1.87,-4.513Zm0,42.391c0.001,-1.693 0.673,-3.316 1.87,-4.513c1.197,-1.197 2.821,-1.87 4.514,-1.87c14.455,-0 49.553,-0 64.008,-0c1.693,-0 3.317,0.673 4.514,1.87c1.197,1.197 1.87,2.82 1.87,4.513c-0.001,1.693 -0.673,3.317 -1.87,4.514c-1.197,1.197 -2.821,1.87 -4.514,1.87c-14.455,-0 -49.553,-0 -64.008,-0c-1.693,-0 -3.317,-0.673 -4.514,-1.87c-1.197,-1.197 -1.869,-2.821 -1.87,-4.514Zm0,42.392c0.001,-1.693 0.673,-3.317 1.87,-4.514c1.197,-1.197 2.821,-1.869 4.514,-1.869c14.455,-0 49.553,-0 64.008,-0c1.693,-0 3.317,0.672 4.514,1.869c1.197,1.197 1.87,2.821 1.87,4.514c-0.001,1.693 -0.673,3.317 -1.87,4.514c-1.197,1.197 -2.821,1.869 -4.514,1.869c-14.455,0 -49.553,0 -64.008,0c-1.693,0 -3.317,-0.672 -4.514,-1.869c-1.197,-1.197 -1.869,-2.821 -1.87,-4.514Zm0,42.392c0.001,-1.693 0.673,-3.317 1.87,-4.514c1.197,-1.197 2.821,-1.87 4.514,-1.87c14.455,0 49.553,0 64.008,0c1.693,0 3.317,0.673 4.514,1.87c1.197,1.197 1.87,2.821 1.87,4.514c-0.001,1.693 -0.673,3.316 -1.87,4.513c-1.197,1.197 -2.821,1.87 -4.514,1.87c-14.455,-0 -49.553,-0 -64.008,-0c-1.693,0 -3.317,-0.673 -4.514,-1.87c-1.197,-1.197 -1.869,-2.82 -1.87,-4.513Zm0,42.396c0.001,-1.693 0.673,-3.317 1.87,-4.514c1.197,-1.197 2.821,-1.87 4.514,-1.87c14.455,0 49.553,0 64.008,0c1.693,0 3.317,0.673 4.514,1.87c1.197,1.197 1.87,2.821 1.87,4.513c-0.001,1.693 -0.673,3.317 -1.87,4.514c-1.197,1.197 -2.821,1.87 -4.514,1.87c-14.455,-0 -49.553,-0 -64.008,-0c-1.693,-0 -3.317,-0.673 -4.514,-1.87c-1.197,-1.197 -1.869,-2.821 -1.87,-4.513Zm0.001,-237.4c-0,-3.526 2.857,-6.384 6.383,-6.384l19.75,0c3.525,0 6.383,2.858 6.383,6.383c0,3.526 -2.858,6.384 -6.383,6.384l-19.75,-0c-3.526,-0 -6.383,-2.858 -6.383,-6.383Zm-0,42.516c-0.001,-1.726 0.685,-3.381 1.906,-4.602c1.22,-1.22 2.876,-1.906 4.602,-1.906c5.665,-0 13.835,-0 19.5,-0c1.726,-0 3.381,0.686 4.602,1.906c1.22,1.221 1.906,2.876 1.906,4.602c0,0.003 0,0.006 0,0.009c0,3.451 -2.798,6.249 -6.25,6.25c-5.758,-0.001 -14.258,-0.001 -20.017,-0.001c-3.451,0 -6.249,-2.798 -6.249,-6.249c-0,-0.003 -0,-0.006 -0,-0.009Zm-0,42.267c-0,-3.526 2.857,-6.383 6.383,-6.384l19.75,0c3.525,0.001 6.383,2.858 6.383,6.384c0,3.525 -2.858,6.383 -6.383,6.383l-19.75,0c-3.526,0 -6.383,-2.858 -6.383,-6.383Zm-0,42.396c-0,-3.526 2.857,-6.384 6.383,-6.384l19.75,0c3.525,0 6.383,2.858 6.383,6.384c0,3.525 -2.858,6.383 -6.383,6.383l-19.75,0c-3.526,-0 -6.383,-2.858 -6.383,-6.383Zm-0,42.391c-0,-3.525 2.857,-6.383 6.383,-6.383l19.75,0c3.525,0 6.383,2.858 6.383,6.383c0,3.526 -2.858,6.384 -6.383,6.384l-19.75,-0c-3.526,-0 -6.383,-2.858 -6.383,-6.384Zm-0,42.392c-0,-3.525 2.857,-6.383 6.383,-6.383l19.75,-0c3.525,-0 6.383,2.858 6.383,6.383c0,3.525 -2.858,6.383 -6.383,6.383l-19.75,0c-3.526,0 -6.383,-2.858 -6.383,-6.383Zm-0,42.392c-0,-3.526 2.857,-6.384 6.383,-6.384l19.75,0c3.525,0 6.383,2.858 6.383,6.384c0,3.525 -2.858,6.383 -6.383,6.383l-19.75,0c-3.526,-0 -6.383,-2.858 -6.383,-6.383Z" style="fill:#dee1e1;fill-rule:nonzero;"/></svg>