<svg width="115" height="70" fill="none" xmlns="http://www.w3.org/2000/svg"><path fill="#DEE1E1" d="M.375 45.908h29.554v3.064H.375zM.375 49.978h12.517v3.064H.375zM6.117 56.269h12.517v3.064H6.117zM6.117 61.356h47.467v3.064H6.117zM6.117 65.426h27.119v3.064H6.117z"/><path fill="red" d="M.375.839h77.379v43.526H.375z"/><path fill="#DEE1E1" d="M80.497.839h14.181v7.977H80.497zM80.497 11.014h14.181v7.977H80.497zM80.497 21.188h14.181v7.977H80.497zM80.497 31.362h14.181v7.977H80.497zM80.497 41.536h14.181v7.977H80.497zM80.497 51.71h14.181v7.977H80.497zM80.497 61.885h14.181v7.977H80.497zM95.949.839h18.426v3.064H95.949zM95.949 11.014h18.426v3.064H95.949zM95.949 21.188h18.426v3.064H95.949zM95.949 31.362h18.426v3.064H95.949zM95.949 41.536h18.426V44.6H95.949zM95.949 51.71h18.426v3.064H95.949zM95.949 61.885h18.426v3.064H95.949zM95.949 4.909h7.804v3.064h-7.804zM95.949 15.083h7.804v3.064h-7.804zM95.949 25.257h7.804v3.064h-7.804zM95.949 35.432h7.804v3.064h-7.804zM95.949 45.606h7.804v3.064h-7.804zM95.949 55.78h7.804v3.064h-7.804zM95.949 65.954h7.804v3.064h-7.804z"/></svg>