<?xml version="1.0" encoding="UTF-8" standalone="no"?><!DOCTYPE svg PUBLIC "-//W3C//DTD SVG 1.1//EN" "http://www.w3.org/Graphics/SVG/1.1/DTD/svg11.dtd"><svg width="100%" height="100%" viewBox="0 0 480 355" version="1.1" xmlns="http://www.w3.org/2000/svg" xmlns:xlink="http://www.w3.org/1999/xlink" xml:space="preserve" xmlns:serif="http://www.serif.com/" style="fill-rule:evenodd;clip-rule:evenodd;stroke-linejoin:round;stroke-miterlimit:2;"><path d="M0.521,24.621c-0,-11.506 9.327,-20.834 20.833,-20.834c78.367,0 354.966,0 433.333,0c11.506,0 20.834,9.328 20.834,20.834c-0,11.984 -0,26.991 -0,38.975c-0,11.506 -9.328,20.833 -20.834,20.833c-78.367,0 -354.966,0 -433.333,0c-11.506,0 -20.833,-9.327 -20.833,-20.833c-0,-11.984 -0,-26.991 -0,-38.975Z" style="fill:#f00;fill-rule:nonzero;"/><path d="M152.15,181.621c-0,-1.662 0.66,-3.256 1.835,-4.431c1.176,-1.176 2.77,-1.836 4.432,-1.836c35.004,0 206.02,0 241.025,0c1.662,0 3.256,0.66 4.431,1.836c1.175,1.175 1.835,2.769 1.835,4.431c0,0.004 0,0.008 0,0.012c0,1.662 -0.66,3.256 -1.835,4.432c-1.175,1.175 -2.769,1.835 -4.431,1.835c-35.005,0 -206.021,0 -241.025,0c-1.662,0 -3.256,-0.66 -4.432,-1.835c-1.175,-1.176 -1.835,-2.77 -1.835,-4.432c0,-0.004 0,-0.008 0,-0.012Zm-136.729,94.008c-0,-3.461 2.805,-6.266 6.266,-6.266c15.42,-0 55.065,-0 70.484,-0c3.461,-0 6.267,2.805 6.267,6.266c-0,0.004 -0,0.008 -0,0.013c-0,3.461 -2.806,6.266 -6.267,6.266c-15.419,0 -55.064,0 -70.484,0c-3.461,0 -6.266,-2.805 -6.266,-6.266c-0,-0.005 -0,-0.009 -0,-0.013Zm95.816,-170.116c0,-1.663 0.661,-3.256 1.836,-4.432c1.175,-1.175 2.769,-1.835 4.431,-1.835c15.01,-0 52.886,-0 67.896,-0c1.662,-0 3.256,0.66 4.431,1.835c1.175,1.176 1.836,2.769 1.836,4.432c-0,0.004 -0,0.008 -0,0.012c-0,1.662 -0.661,3.256 -1.836,4.431c-1.175,1.175 -2.769,1.836 -4.431,1.836c-15.01,-0 -52.886,-0 -67.896,-0c-1.662,-0 -3.256,-0.661 -4.431,-1.836c-1.175,-1.175 -1.836,-2.769 -1.835,-4.431c-0.001,-0.004 -0.001,-0.008 -0.001,-0.012Zm226.563,9.916c0,-5.472 4.436,-9.908 9.908,-9.908c11.149,-0 29.152,-0 40.3,-0c5.473,-0 9.909,4.436 9.909,9.908c-0,5.472 -4.436,9.908 -9.909,9.908c-11.148,0.001 -29.151,0.001 -40.3,0.001c-5.472,-0.001 -9.908,-4.437 -9.908,-9.909c0,0 0,0 0,0Zm-226.563,6.75c0,-1.662 0.661,-3.256 1.836,-4.431c1.175,-1.175 2.769,-1.836 4.431,-1.836c9.857,0.001 28.873,0.001 38.729,0c1.662,0 3.256,0.661 4.432,1.836c1.175,1.175 1.835,2.769 1.835,4.431c0,0.004 0,0.008 0,0.013c0,1.662 -0.66,3.256 -1.835,4.431c-1.176,1.175 -2.77,1.835 -4.432,1.835c-9.856,0 -28.872,0 -38.729,0c-1.662,0 -3.256,-0.66 -4.431,-1.835c-1.175,-1.175 -1.836,-2.769 -1.835,-4.431c-0.001,-0.005 -0.001,-0.009 -0.001,-0.013Zm40.913,84.538c-0,-1.662 0.66,-3.256 1.835,-4.432c1.176,-1.175 2.77,-1.835 4.432,-1.835c19.263,-0 77.469,0 96.733,0c1.662,-0 3.256,0.66 4.431,1.835c1.175,1.176 1.836,2.77 1.836,4.432c-0,0.004 -0,0.008 -0,0.012c-0,1.662 -0.661,3.256 -1.836,4.431c-1.175,1.176 -2.769,1.836 -4.431,1.836c-19.264,-0 -77.47,-0 -96.733,-0c-1.662,-0 -3.256,-0.66 -4.432,-1.836c-1.175,-1.175 -1.835,-2.769 -1.835,-4.431c0,-0.004 0,-0.008 0,-0.012Zm0,25.096c-0,-1.662 0.66,-3.256 1.835,-4.432c1.176,-1.175 2.77,-1.835 4.432,-1.835c15.354,-0 54.716,-0 70.071,-0c1.662,-0 3.255,0.66 4.431,1.835c1.175,1.176 1.835,2.77 1.835,4.432c0,0.004 0,0.008 0,0.012c0,1.662 -0.66,3.256 -1.835,4.431c-1.176,1.175 -2.769,1.836 -4.431,1.836c-15.355,-0 -54.717,-0 -70.071,-0c-1.662,-0 -3.256,-0.661 -4.432,-1.836c-1.175,-1.175 -1.835,-2.769 -1.835,-4.431c0,-0.004 0,-0.008 0,-0.012Zm-136.725,-37.171c-0,-11.506 9.327,-20.834 20.833,-20.834c24.158,0 63.743,0 87.9,0c11.506,0 20.834,9.328 20.834,20.834c-0,9.787 -0,21.425 -0,31.212c-0,11.506 -9.328,20.833 -20.834,20.833c-24.157,0.001 -63.742,0.001 -87.9,0.001c-11.506,-0.001 -20.833,-9.328 -20.833,-20.834c-0,-9.787 -0,-21.425 -0,-31.212Zm-0,119.05c-0,-11.506 9.327,-20.834 20.833,-20.834c18.889,0 46.583,0 65.471,0c11.506,0 20.834,9.328 20.834,20.834c-0.001,6.017 -0.001,12.582 -0.001,18.6c0.001,11.506 -9.327,20.833 -20.833,20.833c-18.888,-0 -46.582,-0 -65.471,-0c-11.506,-0 -20.833,-9.327 -20.833,-20.833c-0,-6.018 -0,-12.583 -0,-18.6Zm223.846,-0c-0,-11.506 9.327,-20.834 20.833,-20.834c18.888,0 46.583,0 65.471,0c11.506,0 20.833,9.328 20.833,20.834c0,6.017 0,12.582 0,18.6c0,11.506 -9.327,20.833 -20.833,20.833c-18.888,-0 -46.583,-0 -65.471,-0c-11.506,-0 -20.833,-9.327 -20.833,-20.833c-0,-6.018 -0,-12.583 -0,-18.6Zm-111.921,-0c-0,-11.506 9.327,-20.834 20.833,-20.834c18.889,0 46.583,0 65.471,0c11.506,0 20.834,9.328 20.834,20.834c-0.001,6.017 -0.001,12.582 -0.001,18.6c0.001,11.506 -9.327,20.833 -20.833,20.833c-18.888,-0 -46.582,-0 -65.471,-0c-11.506,-0 -20.833,-9.327 -20.833,-20.833c-0,-6.018 -0,-12.583 -0,-18.6Zm223.842,-0c-0,-11.506 9.327,-20.834 20.833,-20.834c18.888,0 46.583,0 65.471,0c11.506,0 20.833,9.328 20.833,20.834c0,6.017 0,12.582 0,18.6c0,11.506 -9.327,20.833 -20.833,20.833c-18.888,-0 -46.583,-0 -65.471,-0c-11.506,-0 -20.833,-9.327 -20.833,-20.833c-0,-6.018 -0,-12.583 -0,-18.6Z" style="fill:#dee1e1;fill-rule:nonzero;"/><circle cx="77.604" cy="115.963" r="23.958" style="fill:#dee1e1;"/></svg>